<svg width="149" height="149" viewBox="0 0 149 149" fill="none" xmlns="http://www.w3.org/2000/svg">
<mask id="path-1-inside-1_107_1651" fill="white">
<path d="M148.68 74.34C148.68 115.397 115.397 148.68 74.34 148.68C33.2831 148.68 0 115.397 0 74.34C0 33.2831 33.2831 0 74.34 0C115.397 0 148.68 33.2831 148.68 74.34ZM12.9266 74.34C12.9266 108.258 40.4223 135.753 74.34 135.753C108.258 135.753 135.753 108.258 135.753 74.34C135.753 40.4223 108.258 12.9266 74.34 12.9266C40.4223 12.9266 12.9266 40.4223 12.9266 74.34Z"/>
</mask>
<path d="M148.68 74.34C148.68 115.397 115.397 148.68 74.34 148.68C33.2831 148.68 0 115.397 0 74.34C0 33.2831 33.2831 0 74.34 0C115.397 0 148.68 33.2831 148.68 74.34ZM12.9266 74.34C12.9266 108.258 40.4223 135.753 74.34 135.753C108.258 135.753 135.753 108.258 135.753 74.34C135.753 40.4223 108.258 12.9266 74.34 12.9266C40.4223 12.9266 12.9266 40.4223 12.9266 74.34Z" fill="white" stroke="#3C3C3C" stroke-width="4.248" mask="url(#path-1-inside-1_107_1651)"/>
<g clip-path="url(#clip0_107_1651)">
<circle cx="75.4978" cy="61.5962" r="24.3295" fill="white" stroke="#3C3C3C" stroke-width="2.31709"/>
<rect x="34.9486" y="90.5597" width="83.4153" height="83.4153" rx="24.3295" fill="white" stroke="#3C3C3C" stroke-width="2.31709"/>
</g>
<rect x="11.7777" y="11.7787" width="125.123" height="125.123" rx="62.5615" stroke="#3C3C3C" stroke-width="2.31709"/>
<defs>
<clipPath id="clip0_107_1651">
<rect x="10.6191" y="10.6201" width="127.44" height="127.44" rx="63.72" fill="white"/>
</clipPath>
</defs>
</svg>
