<svg width="23" height="23" viewBox="0 0 23 23" fill="none" xmlns="http://www.w3.org/2000/svg">
<path fill-rule="evenodd" clip-rule="evenodd" d="M1.7159 0.40918C2.33095 0.40918 2.82954 0.907772 2.82954 1.52282V19.341C2.82954 19.6364 2.94687 19.9196 3.15571 20.1285C3.36456 20.3373 3.64782 20.4546 3.94317 20.4546H21.7614C22.3764 20.4546 22.875 20.9532 22.875 21.5683C22.875 22.1833 22.3764 22.6819 21.7614 22.6819H3.94317C3.05711 22.6819 2.20734 22.3299 1.58079 21.7034C0.954252 21.0768 0.602264 20.2271 0.602264 19.341V1.52282C0.602264 0.907772 1.10086 0.40918 1.7159 0.40918Z" fill="#9747FF"/>
<path fill-rule="evenodd" clip-rule="evenodd" d="M22.5488 6.30372C22.9837 6.73862 22.9837 7.44373 22.5488 7.87864L15.867 14.5605C15.4321 14.9954 14.727 14.9954 14.2921 14.5605L10.625 10.8934L6.95792 14.5605C6.52302 14.9954 5.8179 14.9954 5.383 14.5605C4.9481 14.1256 4.9481 13.4204 5.383 12.9855L9.83755 8.53099C10.2724 8.09609 10.9776 8.09609 11.4125 8.53099L15.0796 12.1981L20.9739 6.30372C21.4088 5.86881 22.1139 5.86881 22.5488 6.30372Z" fill="#9747FF"/>
<path fill-rule="evenodd" clip-rule="evenodd" d="M17.3068 7.09118C17.3068 6.47613 17.8054 5.97754 18.4205 5.97754H21.7614C22.3764 5.97754 22.875 6.47613 22.875 7.09118V10.4321C22.875 11.0471 22.3764 11.5457 21.7614 11.5457C21.1463 11.5457 20.6477 11.0471 20.6477 10.4321V8.20481H18.4205C17.8054 8.20481 17.3068 7.70622 17.3068 7.09118Z" fill="#9747FF"/>
</svg>
