<svg width="23" height="22" viewBox="0 0 23 22" fill="none" xmlns="http://www.w3.org/2000/svg">
<path d="M2.69322 21.9882C2.08072 21.9882 1.55656 21.7703 1.12076 21.3345C0.684215 20.8979 0.465942 20.3734 0.465942 19.7609V7.51092C0.465942 6.89842 0.684215 6.37427 1.12076 5.93847C1.55656 5.50192 2.08072 5.28365 2.69322 5.28365H7.14776V3.05637C7.14776 2.44387 7.36603 1.91935 7.80258 1.48281C8.23838 1.047 8.76253 0.829102 9.37503 0.829102H13.8296C14.4421 0.829102 14.9666 1.047 15.4031 1.48281C15.839 1.91935 16.0569 2.44387 16.0569 3.05637V5.28365H20.5114C21.1239 5.28365 21.6484 5.50192 22.085 5.93847C22.5208 6.37427 22.7387 6.89842 22.7387 7.51092V19.7609C22.7387 20.3734 22.5208 20.8979 22.085 21.3345C21.6484 21.7703 21.1239 21.9882 20.5114 21.9882H2.69322ZM9.37503 5.28365H13.8296V3.05637H9.37503V5.28365Z" fill="#9747FF"/>
</svg>
