<svg width="18" height="21" viewBox="0 0 18 21" fill="none" xmlns="http://www.w3.org/2000/svg">
<path d="M9.00022 6.5C10.8567 6.5 12.6372 7.2375 13.95 8.55025C15.2627 9.86301 16.0002 11.6435 16.0002 13.5C16.0002 15.3565 15.2627 17.137 13.95 18.4497C12.6372 19.7625 10.8567 20.5 9.00022 20.5C7.1437 20.5 5.36322 19.7625 4.05047 18.4497C2.73772 17.137 2.00022 15.3565 2.00022 13.5C2.00022 11.6435 2.73772 9.86301 4.05047 8.55025C5.36322 7.2375 7.1437 6.5 9.00022 6.5ZM9.00022 11.5C8.46978 11.5 7.96108 11.7107 7.586 12.0858C7.21093 12.4609 7.00022 12.9696 7.00022 13.5C7.00022 14.0304 7.21093 14.5391 7.586 14.9142C7.96108 15.2893 8.46978 15.5 9.00022 15.5C9.53065 15.5 10.0394 15.2893 10.4144 14.9142C10.7895 14.5391 11.0002 14.0304 11.0002 13.5C11.0002 12.9696 10.7895 12.4609 10.4144 12.0858C10.0394 11.7107 9.53065 11.5 9.00022 11.5ZM6.42022 0.5C6.74489 0.499969 7.06469 0.578981 7.35199 0.73021C7.63929 0.881439 7.88545 1.10034 8.06922 1.368L8.15622 1.508L9.89122 4.544C8.6824 4.42169 7.46134 4.54636 6.30219 4.91046C5.14304 5.27455 4.06999 5.87046 3.14822 6.662L2.91622 6.868L0.559218 2.744C0.434242 2.52547 0.366278 2.27899 0.361588 2.02729C0.356899 1.77559 0.415635 1.52675 0.532383 1.30371C0.649132 1.08068 0.820139 0.890608 1.02965 0.751026C1.23915 0.611444 1.48042 0.526837 1.73122 0.505L1.86022 0.5H6.42022ZM16.1382 0.5C16.401 0.49991 16.6592 0.568845 16.8869 0.699905C17.1146 0.830965 17.304 1.01955 17.4359 1.24678C17.5679 1.47402 17.6378 1.73192 17.6387 1.99468C17.6397 2.25744 17.5715 2.51584 17.4412 2.744L15.0842 6.868C14.2447 6.0968 13.2664 5.49208 12.2012 5.086L10.1562 1.508C10.1096 1.42655 10.0575 1.34837 10.0002 1.274C10.1871 1.03307 10.4267 0.83808 10.7005 0.70393C10.9744 0.56978 11.2753 0.500025 11.5802 0.5H16.1382Z" fill="#9747FF"/>
</svg>
